<svg xmlns="http://www.w3.org/2000/svg" viewBox="0 0 85 80" width="85" height="80">
	<defs>
		<linearGradient id="grd1" gradientUnits="userSpaceOnUse"  x1="120.08" y1="112.377" x2="-34.08" y2="-31.38">
			<stop offset="0" stop-color="#f0474a"  />
			<stop offset="1" stop-color="#fdaf19"  />
		</linearGradient>
	</defs>
	<style>
		tspan { white-space:pre }
		.shp0 { fill: url(#grd1) } 
	</style>
	<g id="Schedule">
		<g id="Title">
			<path id="Rectangle 2" class="shp0" d="M71.19 7.13L60.94 7.13L60.94 4.57C60.94 3.03 59.91 2 58.37 2C56.84 2 55.81 3.02 55.81 4.57L55.81 7.13L30.19 7.13L30.19 4.57C30.19 3.03 29.16 2 27.62 2C26.09 2 25.06 3.02 25.06 4.57L25.06 7.13L14.81 7.13C7.64 7.13 2 12.78 2 19.97L2 66.17C2 73.35 7.64 79 14.81 79L71.19 79C78.36 79 84 73.35 84 66.17L84 19.97C84 12.78 78.36 7.13 71.19 7.13ZM7.12 19.97C7.12 15.86 10.71 12.27 14.81 12.27L25.06 12.27L25.06 14.83C25.06 16.37 26.09 17.4 27.62 17.4C29.16 17.4 30.19 16.37 30.19 14.83L30.19 12.27L55.81 12.27L55.81 14.83C55.81 16.37 56.84 17.4 58.38 17.4C59.91 17.4 60.94 16.37 60.94 14.83L60.94 12.27L71.19 12.27C75.29 12.27 78.88 15.86 78.88 19.97L78.88 27.67L7.12 27.67L7.12 19.97ZM78.87 66.17C78.87 70.27 75.29 73.87 71.19 73.87L14.81 73.87C10.71 73.87 7.12 70.27 7.12 66.17L7.12 32.8L78.87 32.8L78.87 66.17ZM19.94 66.17C21.47 66.17 22.5 65.65 23.52 64.62C24.55 63.6 25.06 62.06 25.06 61.03C25.06 60.01 24.55 58.46 23.52 57.44C21.48 55.38 18.4 55.38 16.35 57.44C15.32 58.46 14.81 59.49 14.81 61.03C14.81 62.06 15.32 63.6 16.35 64.62C17.37 65.65 18.4 66.17 19.94 66.17ZM19.94 50.77C21.47 50.77 22.5 50.25 23.52 49.23C24.55 48.2 25.06 46.66 25.06 45.63C25.06 44.61 24.55 43.07 23.52 42.04C21.48 39.99 18.4 39.99 16.35 42.04C15.32 43.07 14.81 44.09 14.81 45.63C14.81 47.17 15.32 48.2 16.35 49.23C17.37 50.25 18.4 50.77 19.94 50.77ZM35.31 66.17C36.85 66.17 37.88 65.65 38.9 64.62C39.92 63.6 40.44 62.06 40.44 61.03C40.44 60.01 39.92 58.46 38.9 57.44C36.85 55.38 33.78 55.38 31.72 57.44C30.7 58.46 30.19 60.01 30.19 61.03C30.19 62.06 30.7 63.6 31.72 64.62C32.75 65.65 33.78 66.17 35.31 66.17ZM35.31 50.77C36.85 50.77 37.88 50.25 38.9 49.23C39.92 48.2 40.44 46.66 40.44 45.63C40.44 44.61 39.92 43.07 38.9 42.04C36.85 39.99 33.78 39.99 31.72 42.04C30.7 43.07 30.19 44.61 30.19 45.63C30.19 46.66 30.7 48.2 31.72 49.23C32.75 50.25 33.78 50.77 35.31 50.77ZM50.69 66.17C52.22 66.17 53.25 65.65 54.27 64.62C55.3 63.6 55.81 62.57 55.81 61.03C55.81 59.49 55.3 58.46 54.27 57.44C52.22 55.38 49.15 55.38 47.1 57.44C46.07 58.46 45.56 60.01 45.56 61.03C45.56 62.06 46.07 63.6 47.1 64.62C48.12 65.65 49.15 66.17 50.69 66.17ZM50.69 50.77C52.22 50.77 53.25 50.25 54.27 49.23C55.3 48.2 55.81 47.17 55.81 45.63C55.81 44.61 55.3 43.07 54.27 42.04C52.22 39.99 49.15 39.99 47.1 42.04C46.07 43.07 45.56 44.61 45.56 45.63C45.56 46.66 46.07 48.2 47.1 49.23C48.12 50.25 49.15 50.77 50.69 50.77ZM66.06 66.17C67.6 66.17 68.63 65.65 69.65 64.62C70.67 63.6 71.19 62.06 71.19 61.03C71.19 60.01 70.67 58.46 69.65 57.44C67.6 55.38 64.53 55.38 62.47 57.44C61.45 58.46 60.94 59.49 60.94 61.03C60.94 62.06 61.45 63.6 62.47 64.62C63.5 65.65 64.53 66.17 66.06 66.17ZM66.06 50.77C67.6 50.77 68.63 50.25 69.65 49.23C70.67 48.2 71.19 47.17 71.19 45.63C71.19 44.61 70.67 43.07 69.65 42.04C67.6 39.99 64.53 39.99 62.47 42.04C61.45 43.07 60.94 44.61 60.94 45.63C60.94 46.66 61.45 48.2 62.47 49.23C63.5 50.25 64.53 50.77 66.06 50.77Z" />
		</g>
	</g>
</svg>